P2
# Created by GIMP version 2.10.34 PNM plug-in
125 94
255
112
114
114
114
114
114
115
116
116
117
118
118
118
118
118
121
121
121
121
121
122
122
121
122
122
122
122
122
122
122
122
122
122
122
122
122
122
121
121
121
121
122
122
121
122
122
121
122
122
123
133
137
158
161
170
191
217
235
232
236
245
229
233
230
208
190
186
195
209
230
239
247
244
224
196
193
167
149
132
123
116
116
114
114
115
113
112
111
110
108
108
107
106
106
105
104
104
102
101
101
98
98
97
96
94
94
94
92
91
91
91
91
89
88
86
86
86
86
86
85
84
82
82
82
82
114
114
114
114
114
115
117
118
118
118
118
118
118
118
118
121
121
121
121
122
122
122
122
122
122
122
122
122
122
122
122
122
122
122
122
122
122
122
122
122
122
122
122
122
123
123
126
122
131
145
193
220
242
246
242
251
251
252
252
252
252
252
252
252
252
252
251
251
251
252
252
251
251
250
249
243
217
184
162
149
132
122
125
124
117
114
112
113
110
111
108
108
108
106
106
105
104
102
101
101
101
99
98
98
96
95
94
94
92
92
91
91
89
88
88
88
87
86
86
85
85
84
84
83
82
114
114
114
114
115
116
117
118
118
118
118
118
118
119
120
121
121
121
122
122
122
122
122
122
122
122
123
123
123
122
123
123
123
123
123
123
123
123
123
123
123
123
123
124
130
138
175
216
221
234
243
250
251
252
250
252
252
251
251
251
251
251
251
251
251
251
251
251
251
251
251
251
251
251
251
250
248
240
242
211
168
168
144
126
119
115
114
114
111
112
110
110
109
107
106
105
104
103
102
101
101
99
98
98
96
96
95
94
92
92
91
91
89
88
88
88
87
86
86
85
85
85
84
83
82
114
114
114
115
116
116
117
118
118
118
118
118
119
120
121
121
121
121
122
122
122
122
122
122
122
122
124
124
124
123
124
124
124
124
124
124
124
124
125
124
125
129
139
158
188
214
245
250
252
252
252
252
252
251
251
251
252
251
251
251
251
251
251
251
251
251
251
251
251
251
251
250
251
251
251
251
251
251
251
246
242
238
215
177
162
146
125
117
116
113
111
111
110
109
107
105
105
104
103
102
101
99
98
98
97
96
96
94
92
92
91
91
89
89
88
88
87
86
86
85
85
86
85
83
82
114
114
115
116
116
116
117
118
118
118
118
118
120
121
121
121
122
122
122
122
123
124
124
124
124
124
124
124
124
124
124
124
124
124
124
124
124
129
154
183
182
204
228
244
252
252
252
252
252
252
251
252
251
251
251
251
251
251
251
251
251
251
251
251
251
251
251
251
251
251
250
248
251
251
251
251
251
251
251
252
251
251
249
245
234
205
172
138
120
117
112
111
111
110
111
111
108
106
104
102
101
101
100
98
98
97
96
94
94
93
92
91
91
90
88
88
88
88
86
86
86
86
86
85
84
114
116
116
116
116
117
118
118
118
119
121
121
121
121
122
122
122
122
122
122
123
124
124
124
124
124
124
124
124
124
124
124
126
126
125
126
145
153
183
234
250
251
252
252
252
252
252
252
251
251
248
249
250
251
251
251
251
251
251
251
251
251
251
251
251
251
251
251
251
251
250
248
251
251
251
251
251
251
251
251
251
251
252
252
250
248
231
174
139
131
123
130
113
129
140
115
114
113
105
104
102
100
100
101
98
97
96
96
94
93
92
92
91
90
88
88
88
88
88
87
86
86
86
86
86
114
116
116
116
116
118
118
118
118
119
121
121
121
121
122
122
123
123
123
123
123
124
124
124
124
125
125
125
125
125
125
125
127
127
133
139
156
209
244
251
252
252
252
252
252
252
252
252
250
249
247
247
248
250
250
251
251
251
251
250
250
250
251
251
251
251
251
251
251
251
250
249
251
251
251
250
251
251
251
251
251
251
252
252
252
252
249
240
207
188
186
168
193
195
154
134
143
121
109
106
103
102
101
101
99
98
97
96
94
94
93
92
91
90
88
88
88
88
88
87
86
86
86
86
86
114
116
116
116
116
118
118
118
118
119
121
121
121
121
122
122
123
124
124
124
124
124
124
124
125
126
126
126
126
126
126
127
128
128
141
170
219
239
250
252
252
252
252
252
251
251
251
251
249
248
246
246
247
248
248
250
251
251
251
250
248
248
250
251
251
251
251
251
251
251
251
251
251
251
250
248
251
251
251
251
251
251
251
251
251
252
251
251
250
246
244
246
247
224
200
190
137
143
127
109
107
107
106
106
101
100
98
96
95
94
94
92
91
90
88
88
88
88
88
87
86
86
86
86
86
114
116
116
116
118
118
118
118
118
119
121
121
122
122
122
124
124
124
124
124
124
124
126
126
126
128
127
130
128
127
135
153
161
165
205
234
247
252
252
252
252
252
252
252
251
250
248
248
248
248
248
246
247
248
246
246
249
248
251
250
248
248
250
250
248
251
249
248
248
250
251
251
251
251
251
251
251
251
251
248
248
249
251
251
251
251
251
252
252
251
252
252
251
248
243
205
183
194
146
134
130
116
112
109
101
102
99
98
96
95
94
94
92
91
91
88
88
88
88
87
86
86
86
86
86
114
115
115
116
118
118
118
118
118
119
121
121
122
122
123
124
124
124
125
125
126
126
126
125
125
134
131
139
151
159
164
172
225
247
251
252
252
252
252
252
252
252
251
251
249
249
248
248
248
248
248
248
246
247
247
247
249
250
251
251
250
248
249
249
250
249
248
248
250
251
250
249
251
251
251
251
251
251
251
250
249
248
249
251
251
251
249
250
251
251
252
252
252
251
250
244
246
240
222
183
154
142
130
116
107
104
101
98
96
96
95
92
92
92
91
90
89
88
88
88
87
86
86
86
86
114
115
115
116
118
118
118
118
119
120
121
121
122
123
124
124
124
124
126
126
127
130
129
137
156
180
202
201
216
229
235
245
251
252
252
252
252
252
252
252
252
251
251
251
249
248
247
248
248
248
248
250
248
247
247
247
248
250
250
250
250
248
248
249
250
249
249
249
250
250
249
247
250
250
250
251
250
250
250
250
249
248
248
250
250
250
249
250
250
250
252
252
252
252
252
252
252
250
250
245
232
195
160
130
119
106
102
98
97
96
96
93
92
92
91
91
90
88
88
88
88
87
86
86
86
114
116
116
116
118
118
118
118
121
121
121
122
122
123
124
124
124
124
126
126
126
135
160
171
193
234
249
251
251
251
252
252
252
252
252
252
251
251
251
251
251
251
251
251
249
247
246
248
248
248
248
250
250
248
246
246
246
248
248
248
248
248
248
248
248
251
251
251
248
248
247
246
248
248
249
251
248
248
248
248
248
248
248
248
248
248
251
249
248
248
251
251
251
252
252
252
252
252
252
252
247
237
211
172
131
108
100
98
98
97
96
94
93
92
91
91
90
88
88
88
88
88
86
86
86
114
114
115
116
118
118
118
118
118
120
121
122
122
123
124
124
125
126
128
128
135
154
199
235
247
252
252
252
252
252
252
252
252
252
252
251
251
249
248
248
248
248
248
248
248
248
248
248
247
247
248
247
246
246
246
245
245
246
248
247
246
248
247
246
246
248
247
247
246
246
245
245
244
244
245
247
248
248
248
248
248
248
246
245
245
246
247
247
245
246
249
250
251
252
252
252
252
252
252
252
252
249
244
222
167
161
152
132
117
106
98
96
94
93
92
91
91
91
88
88
88
88
88
88
87
114
114
115
116
118
118
118
118
118
120
122
122
122
123
124
126
129
137
131
139
159
189
235
250
251
252
252
252
252
252
252
252
251
251
250
249
249
248
247
247
246
247
247
246
247
247
248
247
246
244
247
246
245
245
245
244
243
245
246
245
246
247
246
246
245
247
246
245
244
243
242
242
243
243
244
245
247
247
247
248
247
245
243
244
245
246
247
245
243
243
245
247
251
252
252
252
252
252
252
252
252
251
251
248
242
215
166
133
113
107
103
96
93
93
92
92
91
91
90
88
88
88
88
88
88
114
114
115
116
118
118
118
118
119
120
122
122
122
123
124
127
136
140
172
192
231
249
252
251
252
252
252
252
252
252
252
252
251
251
249
248
247
246
246
246
245
245
246
246
244
245
247
246
246
243
243
243
243
244
244
243
241
244
244
244
244
245
246
245
244
245
244
244
242
240
240
240
239
240
241
243
245
246
246
247
245
245
241
243
244
242
242
242
240
230
234
237
244
252
252
252
252
252
252
252
252
252
252
252
248
242
224
180
146
127
110
99
96
95
92
92
92
91
91
89
89
89
88
88
88
114
114
115
116
116
118
118
118
121
121
121
122
124
124
126
127
150
206
238
249
251
252
252
252
252
252
252
252
251
251
251
251
251
247
245
244
242
243
244
244
244
244
244
246
246
243
244
243
240
237
238
240
240
241
241
241
240
241
242
242
242
242
243
244
244
242
242
239
236
236
233
234
236
235
237
240
242
243
244
244
244
244
242
243
240
240
242
243
243
234
224
213
214
234
248
252
252
251
249
249
251
251
251
252
252
251
246
242
222
170
131
121
109
97
94
92
92
92
91
91
91
91
88
88
88
114
115
116
116
117
118
118
118
121
122
123
123
123
126
143
181
235
251
252
252
252
252
252
252
251
251
249
249
249
251
249
249
245
238
234
234
235
242
243
242
243
242
243
245
246
246
243
238
234
231
237
235
240
239
236
237
237
236
238
238
242
241
241
239
240
239
239
231
229
233
230
232
236
229
233
237
236
240
240
242
243
244
243
244
243
244
244
244
244
242
227
194
189
199
228
248
252
252
250
249
249
248
248
249
251
252
252
252
245
217
165
129
112
98
95
94
93
92
92
92
91
91
90
90
90
114
116
116
116
118
118
118
119
121
122
129
136
147
169
219
249
251
252
252
252
252
252
252
251
250
250
249
249
248
250
249
243
231
219
220
226
231
238
238
239
237
240
242
239
242
245
244
237
227
222
230
234
236
237
232
232
232
235
232
231
236
239
238
236
236
234
230
227
228
226
227
230
233
228
228
235
235
232
236
238
241
242
243
243
243
241
236
238
238
233
184
173
168
167
198
236
251
252
252
251
249
246
246
247
250
251
252
252
252
249
223
158
120
102
97
96
94
93
92
93
92
91
91
91
91
114
116
116
116
118
118
119
121
122
124
131
153
193
226
245
252
252
252
252
252
251
250
251
249
248
248
251
250
248
248
237
213
204
200
197
216
232
237
238
237
233
238
231
241
241
239
239
238
224
221
224
225
235
233
226
230
228
231
229
227
233
234
231
230
235
230
223
216
227
221
226
228
228
224
230
233
225
226
231
238
236
240
242
242
242
232
234
240
242
237
227
186
155
145
154
204
244
251
251
252
251
249
242
244
248
250
251
251
252
251
246
229
172
125
107
100
95
94
95
94
93
92
92
92
91
114
116
117
118
118
118
119
122
121
127
136
155
208
246
252
252
252
252
251
247
247
248
248
248
248
251
249
247
244
244
216
182
168
165
184
211
231
231
230
234
235
236
236
241
241
240
236
234
227
219
229
224
227
231
223
227
225
225
228
220
226
229
223
227
233
225
220
211
226
216
219
223
220
224
228
220
222
223
227
234
237
239
241
242
241
240
241
242
239
233
227
194
147
131
145
187
231
248
249
249
248
248
245
237
241
245
246
248
249
252
252
249
224
167
128
104
97
98
96
95
93
92
94
93
92
116
117
118
118
118
120
121
125
135
161
205
237
251
252
252
251
250
247
246
246
246
246
248
248
249
248
248
242
244
222
164
153
150
143
168
198
218
231
230
229
233
234
234
239
240
243
240
236
235
222
227
226
221
226
218
217
219
227
224
218
217
220
225
223
229
220
217
214
223
212
217
219
209
218
219
218
223
224
223
230
234
234
237
241
240
242
241
238
234
236
230
212
187
160
148
158
207
241
247
247
245
245
247
237
229
234
242
246
247
250
251
252
250
239
178
135
115
101
97
96
95
93
94
94
93
118
118
118
119
119
121
124
128
147
204
248
253
252
252
252
250
248
244
244
245
246
245
248
247
246
244
238
228
237
214
166
133
119
123
169
206
218
217
228
231
229
234
237
237
240
238
240
237
235
236
225
228
219
213
216
209
213
224
227
225
220
217
223
221
223
220
211
217
215
212
215
211
208
217
209
212
222
217
220
219
226
230
236
239
240
239
240
241
243
240
236
229
209
152
128
140
178
229
243
246
246
244
247
242
226
220
230
238
244
248
251
252
252
252
244
213
150
109
99
97
96
95
94
94
94
118
118
119
121
122
124
130
160
220
245
252
252
251
251
251
245
241
240
240
242
245
246
242
240
240
233
230
232
233
188
140
126
102
144
183
199
205
218
221
224
230
231
236
236
234
234
234
234
232
229
226
222
213
208
206
205
206
216
227
223
225
223
223
217
222
218
201
216
210
213
212
209
200
212
205
210
214
213
209
210
220
227
233
233
237
238
241
239
237
234
232
222
196
168
143
148
157
205
235
247
244
245
246
245
234
226
226
232
238
242
246
250
252
252
252
248
222
148
114
104
99
98
96
96
96
121
121
122
123
125
131
156
214
249
252
252
251
248
247
244
241
238
238
238
242
244
239
236
238
226
230
228
234
212
173
138
109
105
141
174
205
215
215
216
218
223
227
228
232
235
228
223
222
225
216
213
215
211
202
202
202
207
204
217
219
226
226
228
220
222
215
198
215
203
215
205
202
194
198
202
206
207
209
205
209
220
222
224
227
230
234
235
234
234
234
233
226
210
165
126
136
149
193
221
243
244
244
243
246
242
227
223
225
232
239
242
248
251
251
252
251
242
190
128
107
103
100
98
97
97
121
122
122
127
145
175
218
249
252
252
251
249
246
240
238
233
235
232
234
242
239
234
232
230
225
226
229
224
199
159
137
98
116
153
183
201
208
215
218
219
220
224
227
225
225
232
223
212
208
212
201
204
201
197
200
201
203
196
207
212
224
223
223
223
220
215
197
213
205
210
199
197
187
185
191
201
203
194
203
209
212
212
217
220
227
228
234
235
235
233
229
224
206
174
131
112
140
163
206
237
245
242
244
245
246
239
226
220
230
236
240
244
249
251
252
251
250
241
186
121
105
101
99
99
98
122
124
125
141
185
237
251
252
252
251
250
244
241
238
232
232
231
233
236
237
235
232
226
227
225
218
229
205
193
146
133
95
121
150
182
197
204
211
218
225
221
223
225
225
223
220
223
219
207
202
202
189
199
198
197
196
198
188
203
202
217
217
219
220
214
214
200
210
208
204
187
193
187
179
189
198
193
190
204
201
200
201
208
215
218
220
228
231
236
234
229
215
199
173
147
115
133
159
188
227
246
240
244
244
243
243
233
224
215
226
235
240
245
249
251
250
250
251
244
187
123
107
101
100
98
124
132
163
217
247
252
252
252
248
247
243
241
240
229
226
229
228
230
235
238
236
221
211
225
221
220
227
191
187
146
114
102
133
157
182
200
208
210
212
216
224
226
222
221
220
214
209
218
214
205
200
187
188
192
192
189
182
183
191
197
205
208
212
213
213
208
198
207
207
194
178
187
187
177
189
185
181
191
190
188
190
201
203
206
204
211
222
227
228
226
223
214
203
178
147
101
110
147
174
212
242
242
235
243
240
240
241
230
222
220
229
235
242
244
246
245
244
247
248
240
171
122
110
104
100
132
177
237
252
251
252
251
249
247
246
241
237
232
235
232
223
227
234
239
238
228
207
218
223
212
227
214
188
176
146
101
92
133
165
184
196
208
212
211
215
216
223
225
219
218
213
202
201
208
205
196
198
183
188
189
187
178
188
185
187
196
196
203
205
208
204
202
204
206
190
180
181
177
177
180
175
174
188
178
188
193
191
196
189
196
204
212
216
221
224
217
216
207
188
153
103
81
140
170
193
234
247
239
240
234
237
235
234
219
220
211
226
238
243
243
241
238
243
247
243
199
139
116
110
103
166
227
250
252
251
248
247
248
245
243
238
237
236
227
218
224
234
238
230
226
216
204
219
217
219
227
209
186
173
144
86
101
129
148
165
185
197
205
210
213
215
217
220
215
211
209
209
201
194
202
195
196
189
185
188
183
177
183
182
176
194
191
193
200
199
200
205
202
199
188
182
176
167
180
172
170
182
175
185
198
199
196
193
200
205
203
209
213
216
221
219
216
207
191
169
138
100
123
162
190
224
245
241
236
224
224
225
227
223
207
204
216
230
236
241
239
234
237
243
244
202
155
118
106
103
178
241
251
250
245
244
244
245
242
240
238
234
225
216
215
230
232
233
220
227
202
220
228
219
219
229
198
191
164
136
82
106
129
154
184
198
204
205
202
200
203
207
204
203
197
194
198
198
193
190
194
188
194
195
185
177
179
175
178
174
193
192
188
190
191
189
198
194
191
185
179
166
168
181
171
176
174
181
193
194
189
194
201
199
194
191
195
207
214
217
215
214
210
196
180
152
122
121
156
187
208
242
243
238
222
207
217
213
221
215
203
214
221
227
234
239
235
231
236
239
191
130
121
106
104
221
246
246
245
242
242
242
241
237
232
228
215
208
214
228
232
231
217
226
219
216
216
224
223
226
224
203
182
165
118
82
114
143
166
182
194
204
212
212
207
200
193
190
191
191
190
191
186
185
184
187
182
175
189
185
178
178
180
175
172
187
192
181
181
193
182
191
187
183
179
173
159
172
180
170
176
165
177
183
180
193
196
196
199
199
201
194
197
205
212
216
214
207
196
173
136
97
98
143
170
194
237
244
237
233
197
209
203
203
208
200
210
211
222
227
231
228
234
230
229
170
128
114
107
106
227
245
243
244
237
234
235
232
225
219
214
218
214
220
215
225
216
216
212
215
212
214
223
225
229
223
194
178
160
109
92
121
148
163
179
195
205
208
211
210
207
199
197
194
183
185
187
190
183
176
181
181
172
173
175
172
180
181
177
169
173
186
181
179
182
176
184
176
172
170
168
159
170
172
165
169
172
182
175
175
190
192
194
193
186
191
196
195
203
205
206
205
203
196
178
141
102
98
143
160
186
219
242
239
226
207
196
207
196
202
189
189
207
201
210
218
211
226
232
233
175
129
111
108
107
222
239
238
237
228
229
233
223
221
220
216
213
205
213
214
219
211
204
219
209
212
209
222
224
230
216
198
171
149
107
98
115
141
170
195
206
212
216
215
209
203
198
196
192
201
192
181
181
188
184
181
181
176
174
170
177
177
182
173
173
165
175
180
175
179
169
179
168
163
165
165
159
156
162
166
166
177
170
158
169
178
187
192
197
202
197
193
191
198
203
203
208
206
193
157
129
97
81
133
153
179
213
238
240
232
213
199
198
191
199
191
176
191
199
200
195
198
213
229
237
179
139
110
108
108
186
226
234
223
223
224
220
215
217
209
209
200
199
203
202
209
195
208
218
202
207
216
223
223
233
209
186
165
147
96
103
127
156
179
192
205
205
207
203
199
197
199
195
189
187
188
190
187
181
180
176
176
172
177
173
180
176
176
176
167
165
172
174
166
173
168
176
169
154
164
160
159
151
161
167
163
165
163
141
164
175
178
185
191
189
191
197
194
196
211
213
206
203
196
178
145
97
67
123
159
172
210
230
235
231
219
205
197
186
188
190
184
179
189
202
185
181
203
224
231
194
128
114
109
108
180
229
228
214
211
213
203
196
211
206
192
193
192
193
193
199
210
197
202
203
204
219
220
226
223
201
191
170
141
86
107
128
156
176
193
201
206
206
199
194
195
196
193
191
193
192
189
191
186
188
176
178
176
176
176
175
176
167
172
166
163
171
166
156
164
170
167
168
155
163
156
157
154
155
162
162
163
157
150
165
164
155
167
184
201
208
208
212
211
210
206
205
202
204
193
163
115
71
118
155
166
203
234
228
223
221
202
197
191
180
175
190
171
180
192
187
181
191
223
227
194
141
114
110
110
202
224
223
208
210
194
174
203
201
196
192
189
196
199
198
204
195
197
193
207
188
222
220
224
219
195
178
170
138
93
110
132
154
178
191
197
196
196
192
189
185
177
179
180
183
183
188
192
186
180
181
175
177
185
179
174
175
162
160
164
168
168
161
161
165
170
162
163
161
165
155
157
153
154
156
163
155
151
149
159
154
146
157
164
178
198
214
220
220
219
213
205
195
187
180
158
127
88
117
145
164
187
237
232
220
216
203
190
188
182
172
177
172
172
177
173
184
186
215
226
175
140
119
111
111
176
211
220
209
200
173
191
200
184
187
189
188
205
185
203
202
190
192
203
203
192
226
214
217
215
198
176
168
132
89
110
136
161
178
185
197
202
199
197
194
196
196
193
196
196
200
192
190
189
175
174
166
171
183
184
173
171
158
154
158
159
160
157
162
165
167
159
160
160
164
154
160
158
151
153
148
142
135
138
140
151
146
135
137
153
169
190
210
219
225
226
221
209
196
191
167
133
98
108
140
159
179
229
233
221
218
210
187
191
174
176
165
168
170
166
165
166
193
214
218
177
131
112
112
112
167
206
220
207
185
185
186
178
174
189
187
188
194
185
196
189
184
198
208
202
211
225
211
216
212
198
186
167
114
106
123
135
151
170
177
187
189
189
189
186
186
194
204
200
197
194
189
186
178
174
164
159
152
176
177
175
165
160
157
150
154
155
158
164
163
162
162
159
157
157
155
154
155
154
147
135
124
114
111
127
135
121
112
129
144
156
173
189
208
218
227
226
220
201
177
163
137
105
98
142
168
177
223
232
230
216
213
188
188
173
171
167
167
165
164
154
158
185
210
211
159
128
114
113
112
156
196
220
204
186
176
179
167
186
181
176
190
180
184
173
180
185
193
206
202
216
220
216
211
219
195
183
166
111
106
121
141
157
171
186
193
194
195
196
195
204
205
210
206
199
192
185
179
168
172
167
165
156
160
168
175
160
157
152
147
147
149
156
162
164
165
161
156
154
150
152
143
153
152
138
137
125
114
103
114
102
92
118
128
148
158
169
177
188
205
218
227
225
210
189
170
146
118
98
135
160
173
220
230
224
217
213
202
179
168
163
162
156
164
155
149
160
185
202
183
157
121
114
114
113
156
185
214
205
184
180
165
169
172
178
183
174
173
172
175
174
191
185
198
204
218
216
211
208
217
197
176
165
111
111
117
131
151
166
182
187
184
185
198
208
214
214
212
208
192
183
174
170
166
164
163
158
152
155
160
160
153
160
151
145
147
146
155
158
163
173
160
152
153
148
154
142
140
139
131
127
121
107
103
108
89
94
108
119
133
148
162
170
181
184
197
214
222
213
196
173
152
122
97
134
150
174
216
228
221
214
212
199
189
165
164
160
153
157
153
150
160
187
192
150
141
123
114
114
114
142
181
197
204
183
170
165
162
173
173
173
169
167
172
168
170
187
187
190
201
211
217
207
206
215
193
164
146
98
104
117
136
156
166
176
184
194
202
203
211
217
217
212
209
198
186
163
151
151
159
150
139
139
141
147
154
157
155
147
144
144
147
153
154
155
171
165
148
150
152
151
137
137
132
128
123
110
104
98
100
80
76
87
94
99
101
125
133
168
185
175
193
204
207
195
177
161
130
89
118
143
172
209
229
224
213
214
188
197
164
164
157
157
144
149
149
169
191
178
141
126
122
116
115
114
149
165
188
199
189
175
158
173
162
168
160
163
162
172
168
174
184
183
194
200
217
217
213
206
216
191
157
137
89
104
122
142
158
169
174
186
197
208
218
226
222
218
209
200
190
178
164
148
133
138
143
128
121
128
133
146
152
145
145
140
147
143
154
156
158
164
172
152
161
157
148
136
142
128
128
124
112
104
97
94
64
52
70
91
127
157
161
152
169
171
168
172
189
190
185
168
146
124
91
97
135
162
198
234
232
225
218
203
192
170
158
152
148
137
149
155
178
183
158
134
119
119
118
117
115
147
153
169
185
196
175
171
162
159
156
160
149
167
166
164
165
181
186
198
205
213
216
212
208
212
174
163
119
90
103
118
143
159
178
189
198
200
208
214
215
219
217
200
184
167
159
149
137
116
103
115
122
108
121
124
138
137
135
143
140
141
146
154
155
163
165
169
162
164
165
157
139
141
137
131
124
111
99
88
82
41
22
20
25
40
66
108
146
183
192
167
156
180
182
170
155
142
122
93
82
124
150
169
225
238
233
223
208
187
175
155
153
145
140
153
166
187
163
144
125
118
118
118
117
116
139
142
160
174
195
187
174
163
154
157
151
143
166
158
161
164
177
188
196
209
212
213
207
210
206
170
155
114
87
105
121
144
162
177
188
198
207
214
220
222
204
188
180
174
169
146
124
126
113
102
96
112
106
108
117
124
135
135
137
142
142
152
156
163
171
166
168
167
171
173
162
148
141
141
133
130
114
96
74
62
26
8
47
31
22
19
29
37
71
131
170
137
157
169
164
154
138
120
92
75
99
138
164
213
230
237
225
212
186
168
156
149
149
143
158
177
181
144
130
122
118
118
118
117
116
138
141
152
164
179
186
181
168
157
148
146
151
158
166
160
156
170
192
195
211
216
212
215
209
193
171
150
96
94
108
125
144
166
185
198
204
208
209
214
203
192
185
177
164
139
121
110
102
88
74
73
98
96
99
107
118
131
134
139
139
148
149
161
166
171
177
179
169
173
174
165
160
152
149
147
135
118
95
59
29
16
15
79
15
15
11
17
35
28
31
66
122
147
152
150
148
133
112
88
76
83
126
152
192
218
240
233
219
198
170
157
143
145
147
168
174
159
130
125
121
121
121
118
118
118
140
142
147
150
158
174
189
175
164
154
147
152
158
156
154
156
172
192
205
208
221
215
216
202
180
176
143
91
96
109
123
149
168
175
188
198
200
205
203
188
180
175
145
136
144
148
124
97
67
51
52
78
86
92
96
111
123
134
139
148
150
153
167
177
178
181
182
178
184
174
165
164
155
154
158
150
132
90
60
42
29
16
23
16
13
12
16
29
23
42
64
129
158
152
144
138
128
112
93
84
87
109
138
177
203
232
234
229
209
181
153
146
143
157
173
161
141
127
124
123
121
121
120
118
118
141
141
143
147
149
172
187
183
171
163
150
146
152
144
154
158
177
188
204
213
215
221
217
204
177
170
125
86
93
105
124
147
162
173
181
185
192
201
188
163
155
155
175
173
141
94
52
26
16
14
22
59
78
79
88
101
132
141
143
149
153
166
174
183
181
186
187
183
185
178
170
168
160
162
157
152
152
129
85
60
36
13
20
18
15
16
19
18
32
55
101
145
161
153
146
135
127
110
94
87
91
106
137
159
198
222
239
233
215
183
159
154
154
173
169
146
129
127
124
123
122
122
122
119
119
141
141
142
142
149
158
170
176
180
166
151
143
143
142
156
162
183
186
202
209
216
220
215
199
174
162
106
92
97
104
119
142
162
172
169
172
175
173
155
125
142
190
148
90
53
21
21
77
24
21
24
28
47
54
73
100
125
141
151
165
166
173
175
185
186
186
193
191
189
184
183
173
177
174
173
162
165
156
112
77
42
22
14
11
10
13
17
34
59
75
124
159
161
157
154
147
138
118
95
85
94
113
136
149
192
201
234
238
226
187
174
161
170
173
150
134
127
124
124
124
123
122
122
122
121
141
142
142
142
146
150
159
164
176
179
161
148
143
147
162
166
181
183
202
209
213
217
208
194
170
153
100
94
95
103
116
128
144
151
158
165
163
160
150
121
123
82
30
31
27
19
15
23
19
16
53
32
27
36
69
98
120
154
168
174
172
179
181
189
196
189
203
204
202
194
192
188
188
189
181
169
155
158
148
97
62
47
33
37
39
42
56
61
77
120
148
160
162
158
151
141
128
109
94
92
103
121
155
142
169
192
221
238
228
200
181
168
172
157
136
130
126
126
124
124
124
124
122
122
122
141
142
142
144
146
150
149
154
170
179
175
163
154
159
163
160
182
189
209
207
208
213
200
188
159
135
98
96
100
108
121
136
140
142
147
156
161
162
161
129
72
41
23
27
21
17
15
16
15
9
58
43
36
54
71
94
129
160
169
175
178
188
192
201
202
204
206
208
215
206
200
207
206
195
186
176
165
176
183
125
83
69
77
63
64
69
78
90
122
146
154
158
161
160
157
152
136
120
101
99
107
126
177
160
145
179
207
232
231
214
183
177
159
141
129
128
127
125
125
124
124
124
123
122
122
142
142
143
144
145
145
147
148
158
169
179
175
168
164
161
160
190
195
202
205
212
208
193
175
153
129
105
101
101
109
120
126
137
145
148
154
165
168
174
155
108
65
41
19
18
18
15
10
8
12
53
35
33
68
93
117
157
167
175
180
192
199
209
213
213
215
215
217
220
216
217
223
217
212
204
188
187
189
196
171
128
102
100
104
92
94
105
127
135
151
159
159
162
161
156
146
135
130
108
105
112
137
185
188
136
162
190
221
231
222
194
172
146
133
128
128
128
125
126
125
124
124
124
123
122
144
144
144
144
146
146
147
148
151
162
166
176
179
165
161
164
181
198
206
207
207
194
175
164
145
124
107
103
106
115
121
126
134
151
162
165
166
170
173
173
143
104
66
50
28
16
11
8
9
18
27
39
51
86
117
153
179
166
176
197
209
219
223
225
220
220
224
226
225
224
227
228
230
228
222
215
215
203
203
197
171
147
121
119
123
123
121
134
146
148
155
157
161
162
154
148
138
125
109
111
122
150
199
209
152
145
173
206
227
228
203
159
136
130
131
128
128
128
126
126
125
124
124
124
124
144
144
145
146
146
147
148
148
149
155
154
174
179
175
163
165
184
202
204
207
201
178
168
156
143
124
114
111
114
117
124
131
135
151
162
162
160
168
170
179
168
149
102
71
59
54
51
47
46
45
58
63
72
112
146
174
177
176
193
205
214
226
232
230
231
227
231
234
232
230
230
234
236
236
233
229
225
219
219
216
197
175
151
140
135
136
131
140
152
154
148
157
163
165
158
151
143
129
114
112
132
161
207
213
180
132
156
186
220
228
213
152
132
131
131
128
128
128
126
126
126
126
126
125
124
145
145
145
146
147
148
148
148
150
150
155
164
172
177
174
168
182
198
202
199
188
168
163
151
140
127
119
118
116
119
122
126
138
150
155
163
165
169
169
168
168
160
145
123
100
83
77
78
85
85
97
103
106
141
174
191
189
200
215
222
231
232
234
236
236
236
236
237
235
233
232
235
236
235
235
234
232
231
223
218
211
200
177
157
153
162
155
148
161
160
159
166
166
162
166
154
143
133
120
118
136
161
202
217
198
153
140
164
205
227
222
157
136
131
131
128
128
128
127
126
126
126
126
125
124
146
146
146
146
148
148
148
148
151
150
153
154
161
171
182
173
183
195
195
185
174
164
156
151
141
132
126
122
121
122
122
124
145
159
158
162
170
175
168
166
162
163
157
150
133
122
116
113
108
105
119
128
145
166
193
196
206
219
232
232
233
235
235
235
234
234
238
238
235
231
231
236
236
236
236
238
238
238
233
224
216
210
202
181
166
161
164
154
162
168
170
165
165
164
155
159
144
133
126
127
142
171
207
218
185
149
140
149
189
212
222
156
136
133
131
129
128
128
128
127
126
126
126
125
124
148
148
148
148
148
150
151
151
151
151
152
154
155
161
174
182
179
190
188
174
156
161
151
153
146
139
132
126
125
126
126
124
135
149
150
157
168
171
172
167
162
166
162
146
146
141
137
129
126
132
138
153
172
190
200
206
220
225
231
230
231
236
238
239
237
239
240
240
239
238
239
240
239
240
240
241
241
238
229
228
222
215
214
205
186
174
156
165
164
167
162
163
162
168
162
149
136
131
127
133
151
179
213
209
178
146
142
152
175
201
212
165
133
132
131
131
131
131
128
127
126
126
126
126
126
150
150
150
150
149
150
151
152
151
151
152
154
155
159
164
180
180
188
180
170
148
152
156
159
150
144
135
129
126
122
119
118
134
154
159
165
171
173
171
165
158
155
157
160
158
151
133
132
135
147
154
176
189
198
200
211
217
226
232
236
237
239
242
241
242
242
242
242
244
243
243
242
241
241
241
241
242
241
238
232
227
219
212
211
200
192
181
161
166
167
163
166
165
166
160
150
136
132
131
140
159
192
219
215
181
142
137
143
176
190
179
159
149
145
134
131
130
131
130
128
127
126
126
126
126
151
151
151
151
152
152
153
153
153
153
153
154
156
157
161
169
185
186
177
168
146
162
176
163
153
149
141
134
129
123
121
121
139
160
169
173
172
171
168
165
163
158
159
161
159
150
152
146
156
154
170
185
196
196
201
212
218
225
230
236
238
241
242
243
244
242
243
244
244
244
243
242
240
241
240
240
240
240
240
239
235
230
219
210
209
195
195
181
166
162
166
171
172
168
165
156
141
132
134
145
162
193
221
226
193
155
139
138
144
150
146
138
136
135
142
144
134
131
131
129
128
126
126
126
126
152
152
152
152
154
154
155
156
156
156
156
156
156
156
162
168
184
191
175
164
163
197
183
170
160
155
150
145
139
130
127
123
140
153
159
162
171
177
176
173
172
162
160
157
156
163
160
148
159
161
181
194
188
194
210
217
225
232
237
238
238
241
239
242
242
241
241
241
241
241
241
241
238
238
235
234
236
237
238
239
236
233
228
216
205
205
186
181
174
174
178
180
174
173
164
150
135
133
137
147
168
196
227
225
197
158
141
138
138
137
135
136
136
136
134
133
136
135
131
129
128
128
126
126
126
155
155
155
155
157
157
157
157
157
157
157
157
157
158
161
164
179
195
192
208
221
207
189
175
162
158
157
151
143
136
133
134
150
154
153
159
166
174
176
172
165
164
159
157
156
160
160
155
161
178
191
191
190
199
215
227
228
232
236
238
236
236
235
236
236
236
236
236
236
237
237
237
235
234
232
234
236
236
235
236
236
235
230
224
205
198
198
177
178
179
180
178
176
174
168
153
144
133
142
155
178
203
220
209
168
145
141
140
140
139
138
136
136
136
136
135
132
132
131
130
130
128
128
127
127
157
157
157
157
159
159
159
159
159
159
159
159
159
159
162
171
192
218
228
236
237
214
193
182
172
167
160
155
148
145
138
144
154
160
160
163
168
170
171
177
175
171
168
169
167
167
157
161
178
188
190
192
193
213
222
223
229
232
234
232
229
227
227
229
231
232
231
230
226
226
227
229
226
228
232
233
231
229
227
230
230
231
231
227
217
194
180
192
178
170
181
181
173
167
163
155
146
146
151
162
183
211
220
190
163
144
142
141
141
140
139
136
136
136
136
135
132
132
131
130
129
128
128
128
127
158
158
158
159
161
161
161
161
161
161
161
161
161
161
161
167
181
206
233
242
241
228
203
186
178
171
163
158
153
150
146
148
153
155
159
166
165
169
178
181
181
179
174
164
166
173
169
177
179
180
183
196
201
217
223
220
223
227
229
227
225
225
223
227
227
220
217
211
198
189
187
193
199
204
212
221
223
211
209
219
226
230
231
226
222
194
177
176
183
188
185
188
189
184
172
152
148
148
156
168
193
219
227
214
185
155
143
142
142
142
141
139
137
136
136
135
132
132
131
129
128
128
128
127
126
158
158
160
161
162
162
162
162
161
161
161
161
161
160
161
168
178
201
227
243
241
228
205
189
177
170
166
163
162
155
148
152
155
154
157
167
174
177
177
182
180
181
180
175
176
165
170
181
178
176
183
197
210
218
222
217
214
213
217
215
208
215
220
213
198
180
170
160
147
143
140
145
156
163
166
185
201
192
209
220
229
233
233
228
229
214
173
168
181
189
186
183
179
178
175
158
149
156
169
183
208
214
207
191
169
155
144
142
142
142
141
138
138
138
136
136
134
132
131
131
130
128
128
128
128
160
160
160
162
162
162
162
161
161
161
161
161
161
163
163
178
217
239
246
245
240
227
205
190
178
174
171
167
164
160
161
163
161
164
165
161
163
169
173
183
185
182
180
180
176
183
184
183
170
170
191
198
204
213
217
217
206
202
211
195
185
193
193
172
142
118
113
116
114
110
111
114
121
126
128
140
163
190
209
217
224
234
236
235
232
224
191
176
180
180
180
180
178
175
178
165
157
159
176
203
219
216
198
180
164
153
144
144
142
142
141
138
138
138
137
136
135
133
131
129
129
128
128
128
128
161
162
162
162
162
162
162
161
161
161
161
161
161
166
180
201
232
248
249
245
237
220
204
192
181
176
173
170
167
165
163
164
164
156
161
161
163
168
176
181
186
189
186
189
194
190
190
177
172
182
193
197
197
215
215
217
215
208
213
205
184
169
149
124
107
98
100
106
112
108
109
112
120
127
128
123
130
168
193
194
207
221
227
228
230
231
212
182
183
184
185
178
175
175
175
169
163
171
187
213
227
227
217
203
177
156
152
144
142
142
141
139
138
138
137
137
136
133
131
128
128
127
128
128
128
162
161
162
162
162
162
162
161
161
161
162
161
163
171
198
231
248
252
252
248
241
229
211
195
183
178
176
171
168
169
164
159
161
156
155
155
155
168
181
182
185
189
197
195
191
183
178
177
183
190
191
197
209
215
215
221
227
224
212
199
188
169
133
97
100
101
100
105
115
112
111
111
116
122
128
145
141
129
163
171
184
202
215
227
227
228
218
196
184
184
184
182
179
176
175
172
169
177
199
216
229
229
217
204
182
158
149
144
142
142
141
141
139
138
136
136
134
132
131
129
127
126
128
128
128
162
162
162
162
162
162
162
162
162
162
162
161
167
188
226
248
252
252
252
248
244
233
215
198
186
175
168
164
165
169
166
159
152
151
156
163
172
175
179
184
189
187
183
178
181
182
183
182
185
178
189
205
212
215
216
224
226
215
199
190
177
149
102
112
124
109
99
94
92
89
89
96
97
100
103
121
152
116
120
152
183
199
215
226
229
228
223
210
191
188
183
183
182
184
177
168
168
190
208
218
223
221
210
188
169
155
146
144
142
141
142
141
139
138
136
137
134
131
131
129
127
126
126
126
127
162
162
162
161
162
162
162
162
162
162
162
164
178
219
246
251
252
252
252
248
240
231
217
200
187
179
170
166
166
166
165
159
156
161
161
161
165
170
177
183
187
187
191
187
182
181
181
179
183
185
199
210
216
210
212
214
212
203
185
169
152
116
86
126
113
87
74
70
64
59
60
65
63
63
66
83
124
131
87
129
171
199
213
219
223
228
226
219
209
197
190
183
177
180
175
171
185
201
210
216
221
223
221
195
166
160
156
153
153
150
147
141
139
137
136
136
133
131
131
129
127
126
126
126
127
162
162
163
161
162
162
162
162
162
162
162
170
202
242
249
252
252
252
251
248
243
236
221
206
192
182
173
167
163
160
158
167
168
161
164
167
168
168
169
174
181
185
188
178
177
178
180
181
188
200
205
208
213
207
210
208
207
196
181
165
127
78
87
114
83
59
43
35
32
30
30
31
27
27
28
41
75
119
93
116
160
187
201
207
208
221
228
223
215
202
195
193
189
181
176
177
190
198
212
214
214
210
203
193
169
152
147
144
143
143
146
147
140
138
136
134
133
132
131
129
127
126
126
127
128
161
162
162
162
162
162
162
162
162
163
172
195
234
250
252
252
252
252
251
248
244
236
225
211
198
185
176
169
159
156
155
158
166
165
162
163
169
167
167
173
181
182
179
174
179
183
186
198
207
208
206
208
210
209
205
198
191
189
183
171
129
78
92
85
43
22
15
8
8
7
6
6
4
4
8
15
40
98
96
119
151
173
187
197
203
214
228
221
211
208
202
200
197
180
178
184
188
198
203
201
203
191
179
168
159
154
149
145
144
143
142
141
141
140
136
133
132
132
131
129
127
126
126
126
126
161
162
162
162
162
162
162
162
161
170
198
232
250
252
252
252
252
251
250
247
244
235
223
211
200
189
182
174
164
157
155
152
157
161
158
157
164
172
169
167
177
179
181
180
181
186
196
204
208
203
202
210
204
196
178
175
174
184
185
172
130
83
86
71
26
7
3
2
2
2
2
2
3
3
7
26
53
84
84
126
158
163
165
190
212
222
228
228
214
206
200
203
200
186
176
182
195
207
211
201
193
188
173
159
156
155
153
149
146
144
142
141
140
139
135
133
131
131
129
128
127
126
126
126
126
161
162
162
162
162
162
162
163
171
195
231
248
252
252
252
252
251
249
247
245
242
236
224
213
201
193
186
176
167
160
151
148
150
157
158
158
162
168
171
168
167
175
179
180
185
190
196
201
203
201
200
203
204
186
169
167
161
175
177
165
135
88
62
58
37
21
4
2
2
2
1
1
2
2
5
18
39
54
82
132
153
158
157
176
196
212
221
225
218
209
208
206
206
188
180
186
195
203
195
196
202
198
184
170
160
154
153
152
147
145
143
141
139
138
135
133
130
131
129
127
127
126
126
127
127
161
162
162
162
162
163
166
172
193
234
249
252
252
252
252
251
250
247
246
243
240
234
223
210
200
194
187
179
170
166
165
156
150
144
146
147
149
155
163
168
168
168
174
183
192
198
195
197
198
199
202
206
199
193
188
185
176
174
157
151
142
105
58
38
33
16
3
2
2
2
2
1
1
2
2
7
19
40
77
118
126
157
172
175
178
194
213
225
216
204
205
205
204
190
190
191
201
198
194
197
187
169
162
166
170
173
171
163
151
145
144
142
139
138
136
133
130
131
128
126
126
126
124
128
128
161
162
162
162
162
162
166
186
228
249
252
252
252
252
251
249
248
244
242
240
236
231
220
207
198
192
188
182
179
173
160
151
146
139
139
139
146
151
157
161
166
170
179
181
188
194
199
203
201
202
208
200
180
179
179
172
167
162
142
138
126
101
66
39
21
6
3
2
2
1
1
1
1
3
6
7
9
33
75
104
127
147
157
165
180
194
210
222
214
202
203
211
206
185
181
195
201
191
192
198
195
188
166
160
156
155
153
156
160
156
151
148
143
139
135
133
129
128
126
124
124
124
126
129
131
159
161
162
162
163
164
179
219
245
251
252
252
252
251
249
247
247
243
241
237
233
229
219
208
199
191
188
186
178
168
161
156
151
147
144
143
144
150
156
162
171
173
176
180
187
188
193
194
199
196
200
196
186
173
163
149
150
162
160
138
113
98
72
40
16
4
2
2
2
1
1
1
1
1
1
2
6
37
73
98
120
141
153
167
178
190
205
220
214
200
201
213
195
194
202
211
199
186
185
185
181
183
183
168
157
155
151
151
147
144
144
144
145
140
133
132
130
127
125
124
124
125
127
129
131
158
161
162
162
165
175
205
237
247
251
252
252
251
250
248
246
246
242
240
235
230
226
219
208
199
194
191
186
179
171
167
163
161
151
144
141
143
142
140
148
161
167
175
174
177
176
176
185
194
195
202
200
192
177
172
158
159
157
152
131
115
97
74
52
22
3
2
2
2
1
1
1
1
1
1
3
16
44
73
98
112
134
155
169
178
182
199
217
213
203
206
200
174
180
207
217
214
204
191
175
170
165
164
172
167
156
150
150
146
142
142
141
138
134
131
130
130
127
124
124
125
126
128
129
131
158
161
162
162
167
180
211
238
251
251
252
251
251
250
248
246
246
243
238
236
231
224
216
211
205
198
187
181
181
176
170
166
158
149
147
142
136
136
140
146
151
165
172
172
169
166
172
183
190
192
195
192
183
177
170
158
160
153
141
124
106
87
77
57
32
10
2
1
1
1
1
2
2
1
3
15
27
52
80
98
117
133
142
160
174
184
203
218
212
212
213
187
176
192
214
219
209
202
197
193
176
163
162
161
161
159
153
146
142
142
141
138
138
134
131
128
127
126
124
124
125
128
128
129
131
156
158
160
163
172
187
217
244
251
251
252
251
251
250
248
246
244
240
236
234
227
225
219
212
201
196
187
182
177
177
173
163
158
154
146
142
140
136
136
138
145
153
165
170
167
161
160
176
187
187
193
193
175
170
162
151
150
145
140
128
114
90
72
58
39
19
7
2
1
1
1
1
2
4
6
20
30
48
71
89
105
120
129
151
168
184
202
215
211
212
195
173
195
219
222
217
210
194
187
183
173
175
163
161
156
157
150
146
142
139
139
136
135
133
131
128
127
126
126
126
126
128
130
131
132
155
157
159
163
174
206
239
250
251
251
252
251
251
249
247
244
241
237
235
230
226
222
213
205
195
185
181
176
175
174
169
167
162
154
147
141
132
134
134
131
137
145
156
170
166
143
129
157
186
185
184
183
183
166
155
145
139
136
132
122
104
86
73
55
36
24
13
3
2
2
2
1
4
9
10
24
34
44
63
77
94
116
129
146
161
184
202
206
211
210
188
187
204
224
229
225
214
202
181
174
170
164
170
160
155
151
149
144
141
138
136
133
133
132
130
128
127
126
126
126
127
128
131
131
132
154
156
157
163
180
218
245
249
251
251
251
251
249
245
244
241
236
231
227
224
217
212
205
196
189
182
175
176
171
162
165
169
162
155
146
139
133
136
131
128
136
143
146
163
167
150
128
116
157
182
183
180
183
172
156
146
136
132
121
112
99
83
69
43
31
27
19
10
5
5
3
6
13
17
23
28
35
43
59
78
93
111
123
137
160
184
210
213
211
212
187
205
236
243
240
232
225
212
196
175
168
164
159
162
152
148
143
142
138
137
133
132
131
130
128
128
127
126
126
126
127
128
131
131
132
154
156
158
174
201
235
249
251
251
251
250
248
245
243
241
237
233
231
225
219
212
207
203
205
202
198
191
183
175
160
157
165
169
162
156
147
142
136
127
131
139
130
134
145
165
155
127
109
136
176
177
177
175
167
152
145
137
135
124
112
94
77
68
46
39
28
24
23
16
10
11
16
24
33
32
29
32
37
54
73
83
103
121
132
158
184
197
199
213
207
201
214
235
245
246
243
234
220
208
180
168
163
158
154
155
145
141
138
135
134
132
128
129
128
126
126
126
126
126
127
128
128
131
131
132
153
156
166
190
224
242
248
251
251
250
249
247
244
242
238
235
233
230
227
222
221
221
216
210
205
197
193
184
177
167
159
165
170
163
155
145
142
132
135
137
131
130
133
136
151
159
148
132
119
139
171
179
170
165
157
150
137
127
113
104
83
79
70
53
43
29
30
32
34
27
21
14
33
42
41
43
43
49
55
67
83
95
118
132
154
171
189
195
208
196
209
230
241
245
247
246
241
227
209
196
173
160
157
153
148
145
139
136
133
130
129
127
127
125
125
125
125
125
126
127
128
128
130
132
132
153
161
173
197
224
241
249
251
251
249
248
246
241
240
238
234
234
230
229
225
222
216
209
205
199
194
191
185
181
174
164
164
159
149
156
152
146
141
141
136
132
133
132
130
140
156
154
141
134
131
147
165
168
163
164
154
132
117
109
101
89
87
69
58
41
38
42
41
39
25
8
5
20
26
40
46
45
52
55
65
79
91
106
128
147
166
183
212
195
204
224
237
241
245
247
246
241
225
204
188
176
165
154
150
145
143
136
133
131
128
127
125
124
125
124
124
124
124
126
127
128
128
129
132
132
155
162
174
184
207
237
249
251
248
247
246
244
242
240
235
231
229
224
221
216
213
209
202
201
195
190
183
180
179
175
168
161
147
147
153
154
147
144
134
129
129
130
126
137
131
132
146
150
147
127
118
148
160
158
155
142
120
114
100
87
81
79
66
55
43
38
37
25
16
4
3
2
5
6
15
24
29
32
51
69
86
101
116
138
154
179
192
190
191
208
228
239
241
246
248
247
241
230
215
195
175
158
158
148
142
138
134
131
128
126
124
124
123
122
122
122
123
124
126
127
128
128
131
131
132
153
161
173
193
226
247
251
251
249
245
244
242
240
234
227
221
219
216
212
211
210
210
207
208
198
193
181
175
175
168
161
152
141
143
148
148
150
145
136
131
129
122
129
122
126
123
135
147
148
143
131
128
133
150
147
140
125
110
92
77
71
76
59
41
25
15
12
14
11
15
15
13
24
29
35
47
57
63
83
94
102
119
142
161
170
173
171
177
197
216
230
239
242
244
246
247
244
236
213
185
172
157
148
148
141
134
130
127
127
123
122
122
119
119
121
121
124
124
126
126
126
126
128
130
132
150
156
174
210
241
250
251
250
248
245
243
242
236
229
227
225
220
212
209
209
213
212
212
208
199
195
189
178
171
163
158
143
133
135
137
139
138
137
138
137
128
128
117
120
114
117
123
128
144
147
141
132
114
121
137
142
130
123
108
96
90
81
67
48
46
37
41
47
40
46
45
47
53
59
73
84
92
103
109
119
132
154
175
175
156
157
163
179
196
213
227
238
241
243
246
246
244
238
219
187
165
152
145
139
137
131
126
124
123
120
119
118
118
119
121
121
123
124
125
125
125
126
128
131
132
148
156
183
225
246
250
250
248
246
243
241
236
231
223
220
217
211
210
207
209
211
210
204
202
201
195
185
182
171
157
146
140
135
131
127
127
126
130
141
138
138
122
114
110
112
119
117
115
123
129
142
139
126
115
125
135
139
133
124
116
111
108
99
84
81
79
84
75
70
77
73
76
79
79
81
98
107
117
125
138
155
182
171
154
149
156
170
181
195
212
228
235
238
241
245
245
244
240
230
205
177
154
143
137
132
128
124
121
120
118
116
115
116
117
121
122
123
124
124
124
124
126
129
132
132
151
162
205
241
248
250
249
246
246
242
240
235
230
225
219
213
210
214
212
212
210
208
202
200
196
188
180
167
157
151
148
142
132
121
118
127
127
136
143
142
133
125
119
112
120
116
111
116
114
114
123
130
129
128
124
132
145
144
136
131
128
121
115
113
108
103
95
86
86
90
89
91
99
91
92
102
120
128
141
162
159
148
148
149
152
157
164
175
190
211
227
236
239
238
240
242
240
233
218
202
178
159
148
136
129
126
122
118
116
115
114
112
115
116
118
122
123
124
124
124
124
126
128
129
131
151
176
221
244
248
249
248
246
245
243
239
236
232
228
223
218
213
213
211
209
208
208
200
194
186
174
165
154
147
148
145
136
139
138
142
142
130
139
135
133
131
126
121
122
113
109
113
115
106
107
106
108
110
118
112
117
132
141
146
142
138
130
125
121
116
104
101
103
100
101
98
95
107
108
119
122
134
148
156
160
147
135
136
145
149
155
161
168
181
203
222
235
238
237
239
239
237
217
184
176
168
155
142
133
128
125
121
118
115
114
113
113
115
116
118
121
123
123
124
124
124
125
127
129
130
161
194
227
245
248
248
247
245
243
242
238
236
234
225
218
213
208
209
211
213
209
204
197
190
183
168
157
155
152
149
147
151
151
150
148
143
133
143
135
126
131
128
128
119
113
109
106
107
103
103
101
103
101
96
95
98
100
106
124
140
145
139
136
131
127
119
118
118
111
106
111
109
116
121
132
145
153
149
141
131
129
136
138
143
144
148
158
167
180
197
214
229
233
234
236
237
233
215
189
175
160
148
140
130
128
124
120
118
114
113
112
114
115
116
118
120
123
122
124
124
124
124
127
128
127
175
212
239
247
248
247
245
241
241
238
236
235
230
224
217
212
209
209
212
205
199
194
189
184
176
166
170
169
164
163
165
163
154
157
148
140
145
147
138
128
132
134
128
113
108
104
110
107
101
102
107
100
95
94
96
92
93
96
98
116
124
129
134
135
136
134
131
127
126
122
125
125
131
137
142
143
136
126
141
133
132
134
142
148
149
149
154
162
176
189
207
221
229
230
233
235
233
221
197
176
163
150
141
130
126
123
120
118
113
112
112
114
115
116
118
119
122
122
122
123
124
124
125
125
124
195
229
246
248
246
246
242
241
239
238
233
228
221
215
210
210
205
196
196
189
191
187
185
187
187
186
177
173
176
174
171
165
160
155
145
140
147
152
142
137
133
134
119
103
111
109
110
106
107
104
103
95
93
97
96
96
97
94
93
100
97
97
109
113
124
125
125
129
131
131
131
131
133
127
122
119
119
127
129
144
137
136
140
144
153
155
157
164
176
189
206
217
222
222
226
233
234
222
198
181
165
147
134
128
126
123
119
116
114
113
112
114
115
116
116
118
120
122
124
123
122
122
122
122
121
207
239
247
247
246
245
242
240
237
235
231
224
217
208
201
198
196
197
196
191
190
189
181
183
187
183
181
175
172
173
169
163
156
148
136
133
139
151
145
139
135
128
110
95
116
114
107
112
106
103
103
96
93
98
98
98
101
95
90
99
94
86
96
99
94
96
102
108
109
115
111
119
114
115
115
118
122
127
132
142
146
142
144
145
152
159
164
168
178
183
194
210
219
223
225
231
233
223
198
175
158
145
134
127
126
122
118
116
114
113
112
113
115
116
116
118
120
122
123
123
121
122
122
121
120
231
244
247
246
246
242
240
238
236
235
230
226
224
221
214
208
200
192
190
198
194
184
187
186
186
179
174
166
168
163
159
158
148
138
134
130
140
143
142
139
135
119
96
103
120
114
109
113
105
101
101
95
98
98
101
102
102
95
86
98
92
88
93
98
92
90
96
98
104
115
109
111
116
113
116
118
123
129
136
143
153
152
154
156
156
163
170
179
186
195
197
195
205
217
226
229
225
217
196
172
155
139
129
127
125
121
117
116
115
114
112
111
115
116
116
118
120
122
122
123
120
120
120
119
118
